<svg xmlns="http://www.w3.org/2000/svg" width="256" height="256" viewBox="0 0 100 100">
    <rect width="100" height="100" rx="50" fill="#9b0f02"></rect>
    <path fill="#ffffff"
        d="M9.14 67.01L9.14 67.01Q9.14 64.85 10.45 63.41Q11.75 61.97 14.09 61.97L14.09 61.97Q16.43 61.97 17.69 63.41Q18.95 64.85 18.95 67.01L18.95 67.01Q18.95 69.08 17.69 70.52Q16.43 71.96 14.09 71.96L14.09 71.96Q11.75 71.96 10.45 70.52Q9.14 69.08 9.14 67.01ZM34.34 36.95L34.34 70.61Q33.89 70.79 32.99 71.02Q32.09 71.24 31.01 71.24L31.01 71.24Q27.14 71.24 27.14 68L27.14 68L27.14 37.49Q27.14 35.42 27.91 34.21Q28.67 32.99 30.47 31.82L30.47 31.82Q32.81 30.29 36.81 29.17Q40.82 28.04 45.86 28.04L45.86 28.04Q53.06 28.04 53.06 31.64L53.06 31.64Q53.06 32.54 52.79 33.31Q52.52 34.07 52.07 34.61L52.07 34.61Q51.17 34.43 49.73 34.25Q48.29 34.07 46.85 34.07L46.85 34.07Q42.71 34.07 39.56 34.93Q36.41 35.78 34.34 36.95L34.34 36.95ZM90.86 59.72L90.86 59.72Q90.86 65.48 86.63 68.72Q82.40 71.96 74.39 71.96L74.39 71.96Q70.97 71.96 68.09 71.38Q65.21 70.79 63.18 69.85Q61.16 68.90 60.03 67.69Q58.91 66.47 58.91 65.21L58.91 65.21Q58.91 64.13 59.49 63.14Q60.08 62.15 61.25 61.43L61.25 61.43Q63.68 63.23 66.92 64.63Q70.16 66.02 74.30 66.02L74.30 66.02Q83.66 66.02 83.66 59.72L83.66 59.72Q83.66 54.59 77.45 53.06L77.45 53.06L69.98 51.08Q64.49 49.64 61.97 46.90Q59.45 44.15 59.45 39.83L59.45 39.83Q59.45 37.49 60.39 35.33Q61.34 33.17 63.32 31.55Q65.30 29.93 68.22 28.99Q71.15 28.04 75.11 28.04L75.11 28.04Q81.41 28.04 85.28 29.89Q89.15 31.73 89.15 34.16L89.15 34.16Q89.15 35.33 88.56 36.23Q87.98 37.13 86.99 37.58L86.99 37.58Q85.37 36.50 82.40 35.24Q79.43 33.98 75.38 33.98L75.38 33.98Q71.33 33.98 68.94 35.51Q66.56 37.04 66.56 39.83L66.56 39.83Q66.56 41.90 67.91 43.34Q69.26 44.78 72.41 45.50L72.41 45.50L78.62 47.03Q84.74 48.56 87.80 51.58Q90.86 54.59 90.86 59.72Z"></path>
</svg>
