<svg xmlns="http://www.w3.org/2000/svg" width="256" height="256" viewBox="0 0 100 100"><rect width="100" height="100" rx="20" fill="#b7e76e"></rect><path d="M38.24 59.91L49.23 59.91L49.23 52.91L38.24 52.91L38.24 46.12L30.68 46.12L30.68 52.91L18.85 52.91L18.85 59.91L29 59.91C25.71 65.16 21.09 70.34 16.75 73.21C18.29 74.89 20.11 78.04 21.09 80.00C24.31 77.34 27.74 73.56 30.68 69.50L30.68 82.66L38.24 82.66L38.24 69.08C40.90 71.59 43.77 74.40 45.38 76.29L49.86 69.84C48.11 68.38 41.25 63.20 38.24 61.17ZM45.03 42.55C44.75 42.55 44.54 42.48 44.47 42.27C44.33 42.05 44.33 41.36 44.33 40.30L44.33 24.48L34.04 24.48L34.04 24.13L34.04 17.48L27.18 17.48L27.18 23.92L27.18 24.48L19.41 24.48L19.41 31.63L26.48 31.63C25.43 36.32 22.91 41.22 16.96 45.28C18.71 46.26 21.23 48.64 22.42 50.18C29.91 44.86 32.64 38.07 33.55 31.63L37.47 31.63L37.47 40.38C37.47 44.44 37.89 45.77 38.87 46.89C39.92 47.87 41.53 48.36 43.07 48.36L46.08 48.36C47.06 48.36 48.32 48.15 49.09 47.73C50.00 47.31 50.70 46.68 51.12 45.77C51.61 45.00 51.89 43.04 52.10 41.15C50.42 40.66 48.39 39.61 47.27 38.63C47.20 40.03 47.13 41.08 47.06 41.57C46.92 42.05 46.71 42.27 46.57 42.41C46.43 42.48 46.15 42.55 45.87 42.55ZM59.73 63.34L66.45 63.34L66.45 72.16L59.73 72.16ZM66.45 42.41L59.73 42.41L59.73 35.76L66.45 35.76ZM66.45 56.34L59.73 56.34L59.73 49.41L66.45 49.41ZM83.25 72.16L74.01 72.16L74.01 63.34L81.57 63.34L81.57 56.34L74.01 56.34L74.01 49.41L81.50 49.41L81.50 42.41L74.01 42.41L74.01 35.76L82.41 35.76L82.41 28.34L74.99 28.34C76.25 25.68 77.58 22.66 78.77 19.73L70.58 17.77C69.81 20.91 68.34 24.98 66.94 28.34L59.94 28.34C61.48 25.40 62.88 22.24 64 19.16L56.44 17.27C54.06 24.27 49.93 31.41 45.24 35.90C47.06 36.88 50.28 38.98 51.75 40.30L52.10 39.96L52.10 82.73L59.73 82.73L59.73 79.72L83.25 79.72Z" fill="#fff"></path></svg>